<svg width="95" height="95" viewBox="0 0 95 95" fill="none" xmlns="http://www.w3.org/2000/svg">
<path d="M38.71 74.9262L80.7767 5.59165L80.7782 5.58921C81.6775 4.11083 83.1202 3.01578 84.8408 2.6395C86.5688 2.26159 88.342 2.66253 89.7552 3.6987L38.71 74.9262ZM38.71 74.9262L13.3539 47.0659L13.3242 47.0333L13.2934 47.0018C12.1035 45.7835 10.4791 45.0756 8.75134 45.1091C7.02436 45.1425 5.4289 45.9121 4.28402 47.17C3.14563 48.4208 2.52789 50.0638 2.50092 51.7429C2.47396 53.4218 3.03841 55.0834 4.13146 56.3723L4.15977 56.4057L4.18923 56.438L35.1335 90.4385L35.1338 90.4388C35.7862 91.1553 36.5915 91.7216 37.5007 92.0788C38.4111 92.4364 39.3917 92.5707 40.3671 92.4648C41.3419 92.359 42.2692 92.0181 43.0825 91.482C43.8947 90.9467 44.569 90.2334 45.0706 89.4079L45.0714 89.4066L91.4878 12.9056L91.4879 12.9055C92.3822 11.4314 92.6922 9.66088 92.3845 7.97032C92.0766 6.27902 91.1594 4.72793 89.7565 3.69965L38.71 74.9262Z" fill="#FFEDB5" stroke="#FFEDB5" stroke-width="5"/>
</svg>
